<svg width="66" height="60" viewBox="0 0 66 60" fill="none" xmlns="http://www.w3.org/2000/svg">
<rect width="65.1256" height="60" fill="url(#paint0_linear_189_264)"/>
<path fill-rule="evenodd" clip-rule="evenodd" d="M25.4417 11.777C27.3967 11.687 28.02 11.667 33 11.667C37.98 11.667 38.6034 11.6887 40.5567 11.777C42.51 11.8653 43.8434 12.177 45.01 12.6287C46.2317 13.0903 47.34 13.812 48.2567 14.7453C49.19 15.6603 49.91 16.767 50.37 17.9903C50.8234 19.157 51.1334 20.4903 51.2234 22.4403C51.3134 24.3987 51.3334 25.022 51.3334 30.0003C51.3334 34.9803 51.3117 35.6037 51.2234 37.5587C51.135 39.5087 50.8234 40.842 50.37 42.0087C49.91 43.2322 49.1888 44.3407 48.2567 45.257C47.34 46.1903 46.2317 46.9103 45.01 47.3703C43.8434 47.8237 42.51 48.1337 40.56 48.2237C38.6034 48.3137 37.98 48.3337 33 48.3337C28.02 48.3337 27.3967 48.312 25.4417 48.2237C23.4917 48.1353 22.1584 47.8237 20.9917 47.3703C19.7682 46.9103 18.6597 46.1891 17.7434 45.257C16.8107 44.3414 16.0889 43.2335 15.6284 42.0103C15.1767 40.8437 14.8667 39.5103 14.7767 37.5603C14.6867 35.602 14.6667 34.9787 14.6667 30.0003C14.6667 25.0203 14.6884 24.397 14.7767 22.4437C14.865 20.4903 15.1767 19.157 15.6284 17.9903C16.0896 16.7671 16.8119 15.6592 17.745 14.7437C18.6601 13.8112 19.7675 13.0894 20.99 12.6287C22.1567 12.177 23.49 11.867 25.44 11.777H25.4417ZM40.4084 15.077C38.475 14.9887 37.895 14.9703 33 14.9703C28.105 14.9703 27.525 14.9887 25.5917 15.077C23.8034 15.1587 22.8334 15.457 22.1867 15.7087C21.3317 16.042 20.72 16.437 20.0784 17.0787C19.4701 17.6704 19.002 18.3908 18.7084 19.187C18.4567 19.8337 18.1584 20.8037 18.0767 22.592C17.9884 24.5253 17.97 25.1053 17.97 30.0003C17.97 34.8953 17.9884 35.4753 18.0767 37.4087C18.1584 39.197 18.4567 40.167 18.7084 40.8137C19.0017 41.6087 19.47 42.3303 20.0784 42.922C20.67 43.5303 21.3917 43.9987 22.1867 44.292C22.8334 44.5437 23.8034 44.842 25.5917 44.9237C27.525 45.012 28.1034 45.0303 33 45.0303C37.8967 45.0303 38.475 45.012 40.4084 44.9237C42.1967 44.842 43.1667 44.5437 43.8134 44.292C44.6684 43.9587 45.28 43.5637 45.9217 42.922C46.53 42.3303 46.9984 41.6087 47.2917 40.8137C47.5434 40.167 47.8417 39.197 47.9234 37.4087C48.0117 35.4753 48.03 34.8953 48.03 30.0003C48.03 25.1053 48.0117 24.5253 47.9234 22.592C47.8417 20.8037 47.5434 19.8337 47.2917 19.187C46.9584 18.332 46.5634 17.7203 45.9217 17.0787C45.3299 16.4704 44.6095 16.0023 43.8134 15.7087C43.1667 15.457 42.1967 15.1587 40.4084 15.077ZM30.6584 35.652C31.9661 36.1964 33.4223 36.2699 34.7782 35.8599C36.1342 35.4499 37.3057 34.5819 38.0927 33.4041C38.8797 32.2263 39.2334 30.8118 39.0934 29.4022C38.9534 27.9926 38.3284 26.6753 37.325 25.6753C36.6854 25.0361 35.912 24.5467 35.0606 24.2422C34.2091 23.9378 33.3007 23.8259 32.4008 23.9147C31.501 24.0034 30.6319 24.2906 29.8564 24.7555C29.0808 25.2205 28.4179 25.8516 27.9155 26.6034C27.4131 27.3553 27.0837 28.2091 26.9509 29.1036C26.8181 29.998 26.8853 30.9108 27.1476 31.7762C27.4099 32.6416 27.8608 33.438 28.4679 34.1082C29.075 34.7784 29.8231 35.3056 30.6584 35.652ZM26.3367 23.337C27.2117 22.462 28.2506 21.7678 29.3939 21.2943C30.5371 20.8207 31.7625 20.5769 33 20.5769C34.2375 20.5769 35.4629 20.8207 36.6062 21.2943C37.7495 21.7678 38.7883 22.462 39.6634 23.337C40.5384 24.212 41.2325 25.2509 41.7061 26.3942C42.1797 27.5375 42.4234 28.7628 42.4234 30.0003C42.4234 31.2378 42.1797 32.4632 41.7061 33.6065C41.2325 34.7498 40.5384 35.7886 39.6634 36.6637C37.8961 38.4309 35.4993 39.4237 33 39.4237C30.5008 39.4237 28.1039 38.4309 26.3367 36.6637C24.5695 34.8964 23.5766 32.4996 23.5766 30.0003C23.5766 27.5011 24.5695 25.1042 26.3367 23.337ZM44.5134 21.9803C44.7302 21.7758 44.9038 21.5298 45.0239 21.2569C45.1439 20.9841 45.208 20.6899 45.2124 20.3919C45.2167 20.0938 45.1612 19.7979 45.0492 19.5217C44.9371 19.2454 44.7707 18.9945 44.56 18.7837C44.3492 18.5729 44.0982 18.4066 43.822 18.2945C43.5458 18.1825 43.2499 18.127 42.9518 18.1313C42.6537 18.1356 42.3596 18.1997 42.0867 18.3198C41.8139 18.4399 41.5679 18.6135 41.3634 18.8303C40.9655 19.252 40.7477 19.8122 40.7562 20.3919C40.7646 20.9716 40.9987 21.5251 41.4086 21.9351C41.8186 22.345 42.3721 22.579 42.9518 22.5875C43.5315 22.5959 44.0916 22.3781 44.5134 21.9803Z" fill="white"/>
<defs>
<linearGradient id="paint0_linear_189_264" x1="-5" y1="78" x2="44.5" y2="-2" gradientUnits="userSpaceOnUse">
<stop stop-color="#F50707"/>
<stop offset="1" stop-color="#7935A6"/>
</linearGradient>
</defs>
</svg>
