<svg width="66" height="60" viewBox="0 0 66 60" fill="none" xmlns="http://www.w3.org/2000/svg">
<rect width="65.1256" height="60" fill="#55ACEE"/>
<g clip-path="url(#clip0_189_273)">
<path d="M48 20.9828C46.8766 21.4804 45.685 21.8071 44.4649 21.9519C45.7358 21.1902 46.7116 19.984 47.1711 18.5468C45.963 19.2637 44.6412 19.7689 43.2628 20.0404C42.14 18.8442 40.5405 18.0967 38.7702 18.0967C35.3711 18.0967 32.6152 20.8525 32.6152 24.2514C32.6152 24.7338 32.6696 25.2035 32.7745 25.6541C27.6593 25.3973 23.1241 22.9471 20.0884 19.2233C19.5587 20.1323 19.2552 21.1897 19.2552 22.3175C19.2552 24.4529 20.3419 26.3367 21.9933 27.4405C21.0159 27.4099 20.06 27.1459 19.2054 26.6706C19.205 26.6964 19.205 26.7221 19.205 26.748C19.205 29.7301 21.3266 32.2178 24.1421 32.7832C23.2358 33.0297 22.2851 33.0658 21.3627 32.8887C22.1459 35.3339 24.4189 37.1133 27.1121 37.1631C25.0057 38.8138 22.3518 39.7978 19.4682 39.7978C18.9714 39.7978 18.4815 39.7686 18 39.7118C20.7238 41.4581 23.959 42.4771 27.4348 42.4771C38.7559 42.4771 44.9466 33.0984 44.9466 24.9652C44.9466 24.6982 44.9407 24.4328 44.9288 24.1689C46.1337 23.2978 47.1737 22.2189 48 20.9828Z" fill="white"/>
</g>
<defs>
<clipPath id="clip0_189_273">
<rect width="30" height="24.4922" fill="white" transform="translate(18 18)"/>
</clipPath>
</defs>
</svg>
