<svg width="66" height="60" viewBox="0 0 66 60" fill="none" xmlns="http://www.w3.org/2000/svg">
<rect width="65.1256" height="60" fill="#00E676"/>
<g clip-path="url(#clip0_189_268)">
<rect width="35" height="35.4102" transform="translate(15 12)" fill="#00E676"/>
<path d="M24.2508 42.3272L24.823 42.6134C27.2074 44.0438 29.8776 44.7114 32.548 44.7114C40.9405 44.7114 47.807 37.8449 47.807 29.4524C47.807 25.447 46.1857 21.5368 43.3247 18.6757C40.4636 15.8146 36.6487 14.1934 32.548 14.1934C24.1555 14.1934 17.2888 21.0599 17.3843 29.5478C17.3843 32.4088 18.2426 35.1746 19.6731 37.5587L20.0545 38.131L18.5287 43.7578L24.2508 42.3272Z" fill="#00E676"/>
<path d="M44.9459 17.1499C41.7034 13.8121 37.221 12 32.6433 12C22.9157 12 15.0954 19.9156 15.1907 29.5478C15.1907 32.5997 16.049 35.5562 17.4797 38.2265L15 47.2866L24.2508 44.9023C26.8258 46.3329 29.6867 47.0005 32.548 47.0005C42.1802 47.0005 50.0005 39.0848 50.0005 29.4527C50.0005 24.7795 48.1885 20.3925 44.9461 17.1499H44.9459ZM32.6433 44.0441C30.0683 44.0441 27.4934 43.3767 25.2998 42.0415L24.7277 41.7553L19.1963 43.1858L20.6268 37.7499L20.2454 37.1776C16.049 30.4064 18.0518 21.4415 24.9184 17.2452C31.785 13.049 40.6543 15.0518 44.8506 21.9184C49.0468 28.785 47.044 37.6543 40.1776 41.8506C37.9839 43.2811 35.3137 44.044 32.6433 44.044V44.0441ZM41.0358 33.4583L39.9867 32.9814C39.9867 32.9814 38.4609 32.3138 37.5072 31.8369C37.4118 31.8369 37.3165 31.7415 37.221 31.7415C36.9349 31.7415 36.7442 31.8369 36.5534 31.9324C36.5534 31.9324 36.4581 32.0277 35.123 33.5536C35.0275 33.7443 34.8368 33.8397 34.6461 33.8397H34.5506C34.4554 33.8397 34.2646 33.7443 34.1692 33.649L33.6923 33.4583C32.6433 32.9814 31.6897 32.4091 30.9266 31.6462C30.7359 31.4555 30.4498 31.2648 30.259 31.074C29.5914 30.4064 28.9238 29.6434 28.4471 28.7851L28.3517 28.5944C28.2564 28.4989 28.2564 28.4037 28.161 28.2129C28.161 28.0222 28.161 27.8315 28.2564 27.7361C28.2564 27.7361 28.6378 27.2592 28.9238 26.9732C29.1147 26.7823 29.21 26.4963 29.4007 26.3056C29.5914 26.0194 29.6869 25.638 29.5914 25.3518C29.4962 24.8749 28.3517 22.3 28.0657 21.7278C27.8748 21.4417 27.6842 21.3464 27.3981 21.2509H26.349C26.1582 21.2509 25.9676 21.3464 25.7767 21.3464L25.6813 21.4417C25.4906 21.5371 25.2998 21.7278 25.1091 21.8231C24.9184 22.014 24.823 22.2045 24.6322 22.3954C23.9647 23.2537 23.5832 24.3028 23.5832 25.3518C23.5832 26.1147 23.7739 26.8777 24.0601 27.5453L24.1555 27.8315C25.0138 29.6434 26.1582 31.2648 27.6842 32.6953L28.0657 33.0767C28.3517 33.3628 28.6378 33.5536 28.8286 33.8396C30.8314 35.5564 33.1202 36.7961 35.6951 37.4637C35.9813 37.559 36.3627 37.559 36.6489 37.6544H37.6025C38.0794 37.6544 38.6515 37.4637 39.0331 37.273C39.3191 37.0823 39.5098 37.0823 39.7006 36.8916L39.8914 36.7007C40.0822 36.51 40.2729 36.4147 40.4636 36.224C40.6543 36.0332 40.845 35.8425 40.9405 35.6517C41.1312 35.2702 41.2265 34.7933 41.3219 34.3166V33.649C41.3219 33.649 41.2265 33.5536 41.0358 33.4583Z" fill="white"/>
</g>
<defs>
<clipPath id="clip0_189_268">
<rect width="35" height="35.4102" fill="white" transform="translate(15 12)"/>
</clipPath>
</defs>
</svg>
